ply
format ascii 1.0
comment VCGLIB generated
comment TextureFile dummy.png
element vertex 23
property float x
property float y
property float z
property float nx
property float ny
property float nz
property float texture_u
property float texture_v
element face 28
property list uchar int vertex_indices
end_header
-70.10487 76.7188 -153.4073 -0.6023914 0.4359202 -0.668654 0.625 0
70.10483 10.9687 -153.4073 0.5773503 -0.5773503 -0.5773504 0.375 0.25
-70.1049 10.96872 -153.4073 -0.5773504 -0.5773501 -0.5773504 0.375 0
70.10485 76.71879 -153.4073 0.6023915 0.43592 -0.6686541 0.625 0.25
70.10487 10.9687 153.4073 0.6663775 -0.7317721 0.1430058 0.375 0.5
70.1049 76.71879 153.4073 0.6252119 0.6188377 0.4755524 0.625 0.5
-70.10485 46.80882 169.4315 -0.6561965 0.1837029 0.7318876 0.625 0.75
70.1049 46.80879 169.4315 0.6561968 0.1837024 0.7318875 0.625 0.5
-70.10483 76.7188 153.4073 -0.6252117 0.6188378 0.4755525 0.625 0.75
-70.10485 10.96872 153.4073 -0.6663778 -0.7317717 0.143006 0.375 0.75
70.10487 103.9703 37.78158 0.6820168 0.7264444 0.08444987 0.625 0.5
70.10485 103.9703 -91.60926 0.6635121 0.7320915 -0.1542518 0.875 0.5
-70.10486 103.9703 37.7816 -0.6820164 0.7264446 0.08445007 0.625 0.75
-70.10488 103.9703 -91.60926 -0.6635121 0.7320917 -0.1542516 0.625 0
-70.10485 17.48046 169.4315 -0.6004091 -0.4465156 0.663425 0.375 0.75
70.1049 17.48044 169.4315 0.6004093 -0.4465157 0.6634248 0.375 0.5
-70.1049 10.96872 -153.4073 -0.5773504 -0.5773501 -0.5773504 0.375 1
-70.1049 10.96872 -153.4073 -0.5773504 -0.5773501 -0.5773504 0.125 0.75
70.10483 10.9687 -153.4073 0.5773503 -0.5773503 -0.5773504 0.125 0.5
70.10485 103.9703 -91.60926 0.6635121 0.7320915 -0.1542518 0.625 0.25
-70.10487 76.7188 -153.4073 -0.6023914 0.4359202 -0.668654 0.625 1
-70.10488 103.9703 -91.60926 -0.6635121 0.7320917 -0.1542516 0.625 1
-70.10488 103.9703 -91.60926 -0.6635121 0.7320917 -0.1542516 0.875 0.75
3 0 1 2 
3 3 4 1 
3 5 6 7 
3 8 16 9 
3 4 17 18 
3 3 10 5 
3 11 12 10 
3 8 10 12 
3 3 13 19 
3 20 12 21 
3 7 14 15 
3 4 7 15 
3 9 6 8 
3 4 14 9 
3 0 3 1 
3 3 5 4 
3 5 8 6 
3 8 20 16 
3 4 9 17 
3 3 19 10 
3 11 22 12 
3 8 5 10 
3 3 0 13 
3 20 8 12 
3 7 6 14 
3 4 5 7 
3 9 14 6 
3 4 15 14 
