ply
format ascii 1.0
comment VCGLIB generated
comment TextureFile dummy.png
element vertex 130
property float x
property float y
property float z
property float nx
property float ny
property float nz
property float texture_u
property float texture_v
element face 124
property list uchar int vertex_indices
end_header
8.159534 47.41658 -3.566646e-07 0.6856964 0.7278876 -3.387325e-07 1 1
-8.159541 46.50548 -9.250516 -0.6856967 0.7139013 -0.1420039 0.96875 0.5
-8.159541 47.41658 3.566649e-07 -0.6856964 0.7278876 -2.874602e-07 1 0.5
8.159534 46.50548 -9.250516 0.6856964 0.7139016 -0.1420038 0.96875 1
-8.159541 43.80721 -18.14554 -0.6856964 0.6724805 -0.2785505 0.9375 0.5
8.159534 43.80721 -18.14554 0.6856965 0.6724805 -0.2785504 0.9375 1
-8.159541 39.42545 -26.34324 -0.6856965 0.6052164 -0.4043928 0.90625 0.5
8.159534 39.42545 -26.34324 0.6856965 0.6052164 -0.4043927 0.90625 1
-8.159542 33.52858 -33.52858 -0.6856967 0.5146942 -0.5146942 0.875 0.5
8.159533 33.52859 -33.52858 0.6856963 0.5146945 -0.5146943 0.875 1
-8.159541 26.34324 -39.42545 -0.6856965 0.4043926 -0.6052165 0.84375 0.5
8.159534 26.34324 -39.42545 0.6856964 0.4043927 -0.6052165 0.84375 1
-8.15954 18.14554 -43.80721 -0.6856965 0.2785504 -0.6724805 0.8125 0.5
8.159534 18.14554 -43.80721 0.6856965 0.2785504 -0.6724806 0.8125 1
-8.15954 9.250516 -46.50548 -0.6856963 0.142004 -0.7139016 0.78125 0.5
8.159534 9.250517 -46.50548 0.6856964 0.142004 -0.7139016 0.78125 1
-8.159539 2.963824e-06 -47.41658 -0.6856966 8.195403e-08 -0.7278876 0.75 0.5
8.159535 4.19588e-06 -47.41658 0.6856964 1.994991e-07 -0.7278876 0.75 1
-8.159538 -9.25051 -46.50549 -0.6856962 -0.1420039 -0.7139016 0.71875 0.5
8.159536 -9.250508 -46.50549 0.6856967 -0.1420037 -0.7139013 0.71875 1
-8.159538 -18.14553 -43.80721 -0.6856965 -0.2785504 -0.6724805 0.6875 0.5
8.159536 -18.14553 -43.80721 0.6856961 -0.2785505 -0.6724809 0.6875 1
-8.159537 -26.34324 -39.42545 -0.6856964 -0.4043926 -0.6052166 0.65625 0.5
8.159537 -26.34324 -39.42545 0.6856964 -0.4043926 -0.6052166 0.65625 1
-8.159536 -33.52859 -33.52858 -0.6856965 -0.5146943 -0.5146943 0.625 0.5
8.159538 -33.52858 -33.52858 0.6856968 -0.514694 -0.514694 0.625 1
-8.159535 -39.42545 -26.34324 -0.6856964 -0.6052166 -0.4043926 0.59375 0.5
8.159539 -39.42545 -26.34324 0.6856965 -0.6052164 -0.4043927 0.59375 1
-8.159535 -43.80721 -18.14553 -0.6856965 -0.6724805 -0.2785503 0.5625 0.5
8.159539 -43.80721 -18.14553 0.6856962 -0.6724808 -0.2785505 0.5625 1
-8.159534 -46.50549 -9.250504 -0.6856968 -0.7139013 -0.1420035 0.53125 0.5
8.159541 -46.50549 -9.250504 0.6856967 -0.7139013 -0.1420036 0.53125 1
-8.159534 -47.41658 1.580694e-05 -0.6856964 -0.7278876 1.73945e-07 0.5 0.5
8.159541 -47.41658 1.509361e-05 0.6856964 -0.7278877 2.277633e-07 0.5 1
-8.159534 -46.50548 9.250535 -0.6856964 -0.7139015 0.1420042 0.46875 0.5
8.159541 -46.50548 9.250535 0.6856968 -0.7139011 0.1420042 0.46875 1
-8.159534 -43.8072 18.14556 -0.6856967 -0.6724802 0.2785508 0.4375 0.5
8.159541 -43.8072 18.14556 0.6856965 -0.6724803 0.2785508 0.4375 1
-8.159534 -39.42543 26.34326 -0.6856962 -0.6052164 0.4043931 0.40625 0.5
8.159541 -39.42543 26.34326 0.6856965 -0.6052162 0.404393 0.40625 1
-8.159533 -33.52856 33.52861 -0.6856963 -0.514694 0.5146946 0.375 0.5
8.159542 -33.52856 33.52861 0.6856967 -0.5146937 0.5146945 0.375 1
-8.159534 -26.34321 39.42546 -0.6856965 -0.4043923 0.6052167 0.34375 0.5
8.159541 -26.34321 39.42546 0.6856965 -0.4043922 0.6052167 0.34375 1
-8.159534 -18.1455 43.80722 -0.6856965 -0.2785499 0.6724808 0.3125 0.5
8.15954 -18.1455 43.80722 0.6856964 -0.2785499 0.6724809 0.3125 1
-8.159534 -9.250475 46.50549 -0.6856964 -0.1420032 0.7139016 0.28125 0.5
8.15954 -9.250473 46.50549 0.6856967 -0.1420031 0.7139014 0.28125 1
-8.159535 4.516938e-05 47.41658 -0.6856964 5.338189e-07 0.7278876 0.25 0.5
8.159539 4.640144e-05 47.41658 0.6856966 6.609044e-07 0.7278876 0.25 1
-8.159536 9.250564 46.50547 -0.6856962 0.1420046 0.7139016 0.21875 0.5
8.159538 9.250565 46.50547 0.6856963 0.1420047 0.7139015 0.21875 1
-8.159536 18.14559 43.80719 -0.6856964 0.2785513 0.6724803 0.1875 0.5
8.159538 18.14559 43.80719 0.6856968 0.2785511 0.6724799 0.1875 1
-8.159537 26.34329 39.42542 -0.6856964 0.4043934 0.6052161 0.15625 0.5
8.159537 26.34329 39.42542 0.6856962 0.4043936 0.6052161 0.15625 1
-8.159538 33.52863 33.52854 -0.6856965 0.5146948 0.5146936 0.125 0.5
8.159536 33.52863 33.52854 0.6856964 0.514695 0.5146936 0.125 1
-8.159539 39.42548 26.34319 -0.6856967 0.6052166 0.4043919 0.09375 0.5
8.159535 39.42548 26.34319 0.6856964 0.6052169 0.404392 0.09375 1
-8.159539 43.80724 18.14548 -0.6856962 0.6724811 0.2785497 0.0625 0.5
8.159535 43.80724 18.14548 0.6856965 0.6724809 0.2785494 0.0625 1
-8.159541 46.5055 9.250444 -0.6856967 0.7139013 0.1420029 0.03125 0.5
8.159534 46.5055 9.250444 0.6856965 0.7139016 0.1420029 0.03125 1
8.159538 18.14559 43.80719 0.6856968 0.2785511 0.6724799 0.02826902 0.3418443
8.159541 -43.8072 18.14556 0.6856965 -0.6724803 0.2785508 0.1581559 0.02826896
8.159536 -18.14553 -43.80721 0.6856961 -0.2785505 -0.6724809 0.4717311 0.158156
-8.159541 47.41658 3.566649e-07 -0.6856964 0.7278876 -2.874602e-07 0 0.5
-8.15954 9.250516 -46.50548 -0.6856963 0.142004 -0.7139016 0.9853885 0.2968217
-8.159534 -46.50549 -9.250504 -0.6856968 -0.7139013 -0.1420035 0.7968216 0.01461153
-8.159534 -9.250475 46.50549 -0.6856964 -0.1420032 0.7139016 0.5146115 0.2031785
8.159534 43.80721 -18.14554 0.6856965 0.6724805 -0.2785504 0.341844 0.4717311
8.159534 46.50548 -9.250516 0.6856964 0.7139016 -0.1420038 0.2968217 0.4853885
8.159534 47.41658 -3.566646e-07 0.6856964 0.7278876 -3.387325e-07 0.25 0.49
8.159534 46.5055 9.250444 0.6856965 0.7139016 0.1420029 0.2031787 0.4853885
8.159535 43.80724 18.14548 0.6856965 0.6724809 0.2785494 0.1581563 0.4717312
8.159535 39.42548 26.34319 0.6856964 0.6052169 0.404392 0.1166634 0.4495529
8.159536 33.52863 33.52854 0.6856964 0.514695 0.5146936 0.08029459 0.4197058
8.159537 26.34329 39.42542 0.6856962 0.4043936 0.6052161 0.05044746 0.3833371
8.159538 9.250565 46.50547 0.6856963 0.1420047 0.7139015 0.01461159 0.2968219
8.159539 4.640144e-05 47.41658 0.6856966 6.609044e-07 0.7278876 0.01000001 0.2500002
8.15954 -9.250473 46.50549 0.6856967 -0.1420031 0.7139014 0.0146115 0.2031785
8.15954 -18.1455 43.80722 0.6856964 -0.2785499 0.6724809 0.02826884 0.1581562
8.159541 -26.34321 39.42546 0.6856965 -0.4043922 0.6052167 0.0504472 0.1166633
8.159542 -33.52856 33.52861 0.6856967 -0.5146937 0.5146945 0.08029427 0.08029447
8.159541 -39.42543 26.34326 0.6856965 -0.6052162 0.404393 0.116663 0.05044737
8.159541 -46.50548 9.250535 0.6856968 -0.7139011 0.1420042 0.2031782 0.01461156
8.159541 -47.41658 1.509361e-05 0.6856964 -0.7278877 2.277633e-07 0.2499999 0.01000001
8.159541 -46.50549 -9.250504 0.6856967 -0.7139013 -0.1420036 0.2968216 0.01461153
8.159539 -43.80721 -18.14553 0.6856962 -0.6724808 -0.2785505 0.341844 0.02826889
8.159539 -39.42545 -26.34324 0.6856965 -0.6052164 -0.4043927 0.3833368 0.05044729
8.159538 -33.52858 -33.52858 0.6856968 -0.514694 -0.514694 0.4197056 0.08029439
8.159537 -26.34324 -39.42545 0.6856964 -0.4043926 -0.6052166 0.4495527 0.1166632
8.159536 -9.250508 -46.50549 0.6856967 -0.1420037 -0.7139013 0.4853885 0.2031783
8.159535 4.19588e-06 -47.41658 0.6856964 1.994991e-07 -0.7278876 0.49 0.25
8.159534 9.250517 -46.50548 0.6856964 0.142004 -0.7139016 0.4853885 0.2968217
8.159534 18.14554 -43.80721 0.6856965 0.2785504 -0.6724806 0.4717311 0.341844
8.159534 26.34324 -39.42545 0.6856964 0.4043927 -0.6052165 0.4495527 0.3833368
8.159533 33.52859 -33.52858 0.6856963 0.5146945 -0.5146943 0.4197056 0.4197056
8.159534 39.42545 -26.34324 0.6856965 0.6052164 -0.4043927 0.3833368 0.4495527
8.159534 47.41658 -3.566646e-07 0.6856964 0.7278876 -3.387325e-07 0 1
-8.159541 46.5055 9.250444 -0.6856967 0.7139013 0.1420029 0.7031787 0.4853885
-8.159541 47.41658 3.566649e-07 -0.6856964 0.7278876 -2.874602e-07 0.75 0.49
-8.159541 46.50548 -9.250516 -0.6856967 0.7139013 -0.1420039 0.7968217 0.4853885
-8.159541 43.80721 -18.14554 -0.6856964 0.6724805 -0.2785505 0.841844 0.4717311
-8.159541 39.42545 -26.34324 -0.6856965 0.6052164 -0.4043928 0.8833368 0.4495527
-8.159542 33.52858 -33.52858 -0.6856967 0.5146942 -0.5146942 0.9197056 0.4197056
-8.159541 26.34324 -39.42545 -0.6856965 0.4043926 -0.6052165 0.9495527 0.3833368
-8.15954 18.14554 -43.80721 -0.6856965 0.2785504 -0.6724805 0.9717311 0.341844
-8.159539 2.963824e-06 -47.41658 -0.6856966 8.195403e-08 -0.7278876 0.99 0.25
-8.159538 -9.25051 -46.50549 -0.6856962 -0.1420039 -0.7139016 0.9853885 0.2031783
-8.159538 -18.14553 -43.80721 -0.6856965 -0.2785504 -0.6724805 0.9717311 0.158156
-8.159537 -26.34324 -39.42545 -0.6856964 -0.4043926 -0.6052166 0.9495527 0.1166632
-8.159536 -33.52859 -33.52858 -0.6856965 -0.5146943 -0.5146943 0.9197056 0.08029439
-8.159535 -39.42545 -26.34324 -0.6856964 -0.6052166 -0.4043926 0.8833368 0.05044729
-8.159535 -43.80721 -18.14553 -0.6856965 -0.6724805 -0.2785503 0.841844 0.02826889
-8.159534 -47.41658 1.580694e-05 -0.6856964 -0.7278876 1.73945e-07 0.7499999 0.01000001
-8.159534 -46.50548 9.250535 -0.6856964 -0.7139015 0.1420042 0.7031782 0.01461156
-8.159534 -43.8072 18.14556 -0.6856967 -0.6724802 0.2785508 0.6581559 0.02826896
-8.159534 -39.42543 26.34326 -0.6856962 -0.6052164 0.4043931 0.616663 0.05044737
-8.159533 -33.52856 33.52861 -0.6856963 -0.514694 0.5146946 0.5802943 0.08029447
-8.159534 -26.34321 39.42546 -0.6856965 -0.4043923 0.6052167 0.5504472 0.1166633
-8.159534 -18.1455 43.80722 -0.6856965 -0.2785499 0.6724808 0.5282688 0.1581562
-8.159535 4.516938e-05 47.41658 -0.6856964 5.338189e-07 0.7278876 0.51 0.2500002
-8.159536 9.250564 46.50547 -0.6856962 0.1420046 0.7139016 0.5146116 0.2968219
-8.159536 18.14559 43.80719 -0.6856964 0.2785513 0.6724803 0.5282691 0.3418443
-8.159537 26.34329 39.42542 -0.6856964 0.4043934 0.6052161 0.5504475 0.3833371
-8.159538 33.52863 33.52854 -0.6856965 0.5146948 0.5146936 0.5802946 0.4197058
-8.159539 39.42548 26.34319 -0.6856967 0.6052166 0.4043919 0.6166634 0.4495529
-8.159539 43.80724 18.14548 -0.6856962 0.6724811 0.2785497 0.6581563 0.4717312
3 0 1 2 
3 3 4 1 
3 5 6 4 
3 7 8 6 
3 9 10 8 
3 11 12 10 
3 13 14 12 
3 15 16 14 
3 17 18 16 
3 19 20 18 
3 21 22 20 
3 23 24 22 
3 25 26 24 
3 27 28 26 
3 29 30 28 
3 31 32 30 
3 33 34 32 
3 35 36 34 
3 37 38 36 
3 39 40 38 
3 41 42 40 
3 43 44 42 
3 45 46 44 
3 47 48 46 
3 49 50 48 
3 51 52 50 
3 53 54 52 
3 55 56 54 
3 57 58 56 
3 59 60 58 
3 64 65 66 
3 61 62 60 
3 63 67 62 
3 68 69 70 
3 0 3 1 
3 3 5 4 
3 5 7 6 
3 7 9 8 
3 9 11 10 
3 11 13 12 
3 13 15 14 
3 15 17 16 
3 17 19 18 
3 19 21 20 
3 21 23 22 
3 23 25 24 
3 25 27 26 
3 27 29 28 
3 29 31 30 
3 31 33 32 
3 33 35 34 
3 35 37 36 
3 37 39 38 
3 39 41 40 
3 41 43 42 
3 43 45 44 
3 45 47 46 
3 47 49 48 
3 49 51 50 
3 51 53 52 
3 53 55 54 
3 55 57 56 
3 57 59 58 
3 59 61 60 
3 71 72 73 
3 73 74 71 
3 74 75 71 
3 75 76 77 
3 77 78 64 
3 64 79 80 
3 80 81 64 
3 81 82 64 
3 82 83 65 
3 83 84 65 
3 84 85 65 
3 65 86 87 
3 87 88 89 
3 89 90 91 
3 91 92 66 
3 66 93 94 
3 94 95 66 
3 95 96 66 
3 96 97 98 
3 98 99 71 
3 75 77 71 
3 77 64 71 
3 65 87 66 
3 87 89 66 
3 89 91 66 
3 96 98 66 
3 98 71 66 
3 64 82 65 
3 71 64 66 
3 61 63 62 
3 63 100 67 
3 101 102 103 
3 103 104 105 
3 105 106 107 
3 107 108 105 
3 108 68 105 
3 68 109 110 
3 110 111 68 
3 111 112 68 
3 112 113 69 
3 113 114 69 
3 114 115 69 
3 69 116 117 
3 117 118 119 
3 119 120 121 
3 121 122 70 
3 70 123 124 
3 124 125 126 
3 126 127 101 
3 127 128 101 
3 128 129 101 
3 101 103 105 
3 69 117 70 
3 117 119 70 
3 119 121 70 
3 70 124 101 
3 124 126 101 
3 101 105 68 
3 68 112 69 
3 101 68 70 
